<?xml version="1.0" encoding="UTF-8"?>
<svg width="50px" height="50px" version="1.1" viewBox="0 0 256 256" xmlns="http://www.w3.org/2000/svg">
<g fill="#808080">
<rect transform="matrix(.99959 .028553 -.003566 .99999 0 0)" x="52.659" y="50.856" width="159.97" height="145.97" rx="14.545" ry="9.2764" fill="#fff" style="paint-order:stroke markers fill"/>
</g>
<g transform="translate(2.1814 -1.3818)" fill="#cc5de8" font-family="none" font-size="none" font-weight="none" stroke-miterlimit="10" text-anchor="none" style="mix-blend-mode:normal">
<g transform="scale(5.12)">
<path d="m14 3.9902c-5.5113 0-10 4.4887-10 10v22c0 5.5113 4.4887 10 10 10h22c5.5113 0 10-4.4887 10-10v-22c0-5.5113-4.4887-10-10-10zm4.0059 8.043c0.628 0.027 1.2047 0.38083 1.5527 0.92383 0.396 0.618 1.0106 1.5771 1.8106 2.8281 0.73 1.141 0.78091 2.6147 0.12891 3.8047l-1.4648 2.084c-0.396 0.564-0.47498 1.2859-0.20898 1.9219 0.414 0.99 1.2166 2.5115 2.6426 3.9375s2.9475 2.2286 3.9375 2.6426c0.636 0.266 1.3579 0.18702 1.9219-0.20898l2.084-1.4648c1.19-0.652 2.6637-0.60009 3.8047 0.12891 1.251 0.8 2.2101 1.4146 2.8281 1.8106 0.543 0.348 0.89683 0.92473 0.92383 1.5527 0.154 3.564-2.6072 5.0078-3.4102 5.0078-0.556 0-7.2403 0.7597-14.779-6.7793s-6.7793-14.223-6.7793-14.779c0-0.803 1.4438-3.5642 5.0078-3.4102z"/>
</g>
</g>
</svg>

