<?xml version="1.0" encoding="UTF-8"?>
<svg version="1.1" viewBox="0 0 128 128" xmlns="http://www.w3.org/2000/svg">
<g transform="translate(-134.4 -1.3405)">
<g transform="translate(134.4 1.3405)" stroke-width="1.3333">
<path d="m0 64v-64h128l-0.0589 59.667-0.0589 59.667-2.5779-4.8798c-3.0043-5.6869-7.7259-9.7102-14.101-12.015-4.9285-1.7822-5.9059-4.9755-2.4108-7.8762 1.1694-0.97047 3.5694-4.7562 5.3333-8.4128 4.3727-9.0642 4.4244-20.783 0.12317-27.888-3.3054-5.46-9.4803-10.238-13.249-10.253-2.078-0.0078-2.3333-1.5884-2.3333-14.443 0-21.113 1.5169-20.232-34.854-20.232-28.257 0-28.725 0.04573-31.581 3.0859-2.8647 3.0494-2.8991 3.6495-2.8991 50.667v47.581h18.714c18.088 0 18.667 0.0862 17.333 2.579-0.75913 1.4184-1.3802 4.4184-1.3802 6.6667v4.0876h-64zm88.976 44c-2.1735-5.5332-1.6263-6.1888 3.4864-4.1768 2.2524 0.88636 2.2783 1.122 0.30323 2.7612-1.2772 1.06-1.838 2.8047-1.3727 4.2705 1.4621 4.6066-0.30662 2.5173-2.4169-2.8549zm11.692 3.4738c0.40123-1.3894-0.21277-3.5674-1.3644-4.8399-1.9313-2.1341-1.818-2.383 1.4585-3.2054 1.9538-0.49039 3.7022-0.71241 3.8852-0.49339 0.18299 0.21902-0.80162 2.7982-2.188 5.7316-1.3864 2.9333-2.1924 4.1966-1.7912 2.8072z" fill="#fefefe"/>
<path d="m29.6 64.702c0.398-44.403 0.41556-44.647 3.4344-47.667 2.8996-2.9005 4.117-3.0546 27.418-3.471 13.411-0.23969 26.446 0.08669 28.966 0.72529 6.8183 1.7279 9.2436 7.5102 9.2462 22.044l0.002072 11.667h-4.853c-3.0583 0-5.5081 0.86292-6.6243 2.3333-1.6869 2.2222-1.7733 2.2222-1.8137 0-0.035588-1.9583-1.3284-2.3333-8.0424-2.3333h-8v6.6667c0 6.0899 0.26841 6.6667 3.1024 6.6667 2.6887 0 3.0241 0.53341 2.5153 4-0.41439 2.8234-1.3269 4-3.1024 4-2.1295 0-2.5153 1.0226-2.5153 6.6667 0 6.5185 0.08889 6.6667 4 6.6667 2.5641 0 4 0.67878 4 1.891 0 1.04 0.36419 2.84 0.80932 4 0.64581 1.683-0.16232 2.109-4 2.109h-4.8093v6.6667c0 6.3731 0.16147 6.6686 3.6667 6.711l3.6667 0.0444-3.1477 2.6223c-2.8309 2.3584-5.2197 2.6223-23.733 2.6223h-20.586zm29.067 32.631v-6.6667h-16v13.333h16zm0-21.333v-6.6667h-16v13.333h16zm0-21.333v-6.6667h-16v13.333h16zm0-21.333v-6.6667h-16v13.333h16zm26.667 0v-6.6667h-16v13.333h16z" fill="#8ec8f7"/>
<path d="m91.25 110.53c-0.49894-0.8073 0.49338-2.7573 2.2052-4.3333l3.1123-2.8655-2.4145 2.916c-1.328 1.6038-2.0203 3.5538-1.5385 4.3333s0.57597 1.4174 0.2093 1.4174c-0.36667 0-1.0749-0.66052-1.5738-1.4678z" fill="#e89797"/>
<path d="m29.333 112c0-2.5531 0.88889-2.6667 20.873-2.6667 20.789 0 20.864 0.0108 18.46 2.6667-2.1919 2.4221-4.1066 2.6667-20.873 2.6667-17.571 0-18.46-0.12841-18.46-2.6667z" fill="#62b3f4"/>
<path d="m97.873 106.33-2.54-3 3 2.54c2.8193 2.387 3.607 3.46 2.54 3.46-0.25301 0-1.603-1.35-3-3z" fill="#e78f8f"/>
<path d="m91.292 97.218c-2.223-0.62846-5.4391-2.4445-7.1469-4.0356-4.4326-4.1296-9.1828-16.138-5.478-13.849 0.8012 0.49517 1.3333-1.2363 1.3333-4.3385 0-3.996 0.90411-6.0288 4.0011-8.9958l4.0011-3.8333 23.998 7.6692v5.1612c0 3.1013 0.53216 4.8323 1.3333 4.3372 2.1082-1.3029 1.5624 2.0182-1.305 7.9415-3.9346 8.1278-12.548 12.258-20.737 9.9427zm-0.62493-19.884c0-1.7778-0.88889-2.6667-2.6667-2.6667s-2.6667 0.88889-2.6667 2.6667c0 1.7778 0.88889 2.6667 2.6667 2.6667s2.6667-0.88889 2.6667-2.6667zm16 0c0-1.7778-0.88889-2.6667-2.6667-2.6667s-2.6667 0.88889-2.6667 2.6667c0 1.7778 0.88889 2.6667 2.6667 2.6667s2.6667-0.88889 2.6667-2.6667z" fill="#fdb54b"/>
<path d="m42.667 97.333v-6.6667h16v13.333h-16zm26.667 0v-6.6667h5.1009c5.4147 0 10.899 4.1709 10.899 8.2888 0 2.3834-6.4354 5.0445-12.199 5.0445-3.6724 0-3.801-0.2257-3.801-6.6667zm-26.667-21.333v-6.6667h16v13.333h-16zm26.667 0c0-5.6651 0.38129-6.6667 2.538-6.6667 2.0951 0 2.6186 1.1634 3 6.6675 0.42703 6.1626 0.23486 6.6674-2.538 6.6667-2.711-7.49e-4 -3-0.64305-3-6.6675zm-26.667-21.333v-6.6667h16v13.333h-16zm26.667 0v-6.6667h8c4.4444 0 8 0.59259 8 1.3333 0 2.4384-10.624 12-13.333 12-2.3111 0-2.6667-0.88889-2.6667-6.6667zm-26.667-21.333v-6.6667h16v13.333h-16zm26.667 0v-6.6667h16v13.333h-16z" fill="#41a3f3"/>
<path d="m76.105 79.222c0.06397-1.5533 0.37992-1.8692 0.80556-0.80556 0.38516 0.9625 0.33779 2.1125-0.10527 2.5556-0.44306 0.44305-0.75819-0.34445-0.70029-1.75zm38.667 0c0.064-1.5533 0.37992-1.8692 0.80556-0.80556 0.38516 0.9625 0.33779 2.1125-0.10527 2.5556-0.44306 0.44305-0.75819-0.34445-0.70029-1.75z" fill="#fea625"/>
<path d="m88.333 101.73c-1.8976-0.3655-3-1.5408-3-3.1987 0-2.178 0.43579-2.3876 2.579-1.2406 1.4185 0.75914 5.0579 1.3802 8.0877 1.3802s6.6692-0.62111 8.0876-1.3802c2.1314-1.1407 2.579-0.93822 2.579 1.1667 0 3.5979-8.6384 5.1399-18.333 3.2726z" fill="#fe9700"/>
<path d="m65.704 122.62c0.8709-6.493 3.4519-10.681 9.2682-15.039 8.7298-6.5409 9.42-6.2478 15.052 6.3923 2.785 6.2503 5.4738 11.364 5.9752 11.364s3.184-5.1 5.9614-11.333c2.7775-6.2333 5.6118-11.333 6.2986-11.333 4.0326 0 13.484 7.7786 16.526 13.6 1.0345 1.9802 1.881 5.4302 1.881 7.6667v4.0662h-61.684z" fill="#3e50b4"/>
<path d="m93.944 117.67c-0.46393-2.75-1.1047-5.9653-1.4239-7.1451-0.8895-3.2878 2.9486-5.9557 5.51-3.8299 1.1166 0.92666 1.7689 2.6501 1.4498 3.8299-0.31919 1.1798-0.95993 4.3951-1.4239 7.1451-0.46393 2.75-1.3891 5-2.056 5s-1.5921-2.25-2.056-5z" fill="#d22e2e"/>
<path d="m85.928 78.55c-1.374-2.2232 1.7163-4.7727 3.5556-2.9333 1.5386 1.5386 0.57563 4.3828-1.4838 4.3828-0.64678 0-1.5791-0.65228-2.0718-1.4495zm3.4051-1.2172c0-0.73333-0.6-1.3333-1.3333-1.3333s-1.3333 0.6-1.3333 1.3333c0 0.73333 0.6 1.3333 1.3333 1.3333s1.3333-0.6 1.3333-1.3333zm12.595 1.2172c-1.374-2.2232 1.7163-4.7727 3.5556-2.9333 1.5386 1.5386 0.57563 4.3828-1.4838 4.3828-0.64677 0-1.5791-0.65228-2.0718-1.4495zm3.4051-1.2172c0-0.73333-0.6-1.3333-1.3333-1.3333s-1.3333 0.6-1.3333 1.3333c0 0.73333 0.6 1.3333 1.3333 1.3333s1.3333-0.6 1.3333-1.3333z" fill="#84501d"/>
<path d="m86.667 77.333c0-0.73333 0.6-1.3333 1.3333-1.3333s1.3333 0.6 1.3333 1.3333c0 0.73333-0.6 1.3333-1.3333 1.3333s-1.3333-0.6-1.3333-1.3333zm16 0c0-0.73333 0.6-1.3333 1.3333-1.3333s1.3333 0.6 1.3333 1.3333c0 0.73333-0.6 1.3333-1.3333 1.3333s-1.3333-0.6-1.3333-1.3333z" fill="#774618"/>
<path d="m76.956 76.336c-4.5946-5.1087 0.70133-20.695 7.6219-22.432 1.8298-0.45925 3.6888-1.9754 4.1312-3.3691 0.91944-2.8969 4.1748-3.187 11.958-1.0655 8.9205 2.4314 14.176 8.792 15.914 19.26 0.73904 4.4517 0.41681 5.8288-1.8423 7.8733-2.7179 2.4597-2.738 2.4392-2.738-2.7873v-5.2652l-11.079-3.6082c-6.0937-1.9845-11.857-3.6082-12.808-3.6082-2.8986 0-7.4068 6.907-8.1125 12.429-0.65391 5.1171-0.71216 5.1664-3.0444 2.5732z" fill="#414141"/>
</g>
</g>
</svg>

